<svg width="50" height="36" viewBox="0 0 50 36" fill="none" xmlns="http://www.w3.org/2000/svg">
<path d="M30 5.5V23H5V5.5H30ZM5 0.5C2.24219 0.5 0 2.74219 0 5.5V23C0 25.7578 2.24219 28 5 28H14.1641L13.3281 30.5H7.5C6.11719 30.5 5 31.6172 5 33C5 34.3828 6.11719 35.5 7.5 35.5H27.5C28.8828 35.5 30 34.3828 30 33C30 31.6172 28.8828 30.5 27.5 30.5H21.6641L20.8281 28H30C32.7578 28 35 25.7578 35 23V5.5C35 2.74219 32.7578 0.5 30 0.5H5ZM41.25 0.5C39.1797 0.5 37.5 2.17969 37.5 4.25V31.75C37.5 33.8203 39.1797 35.5 41.25 35.5H46.25C48.3203 35.5 50 33.8203 50 31.75V4.25C50 2.17969 48.3203 0.5 46.25 0.5H41.25ZM42.5 5.5H45C45.6875 5.5 46.25 6.0625 46.25 6.75C46.25 7.4375 45.6875 8 45 8H42.5C41.8125 8 41.25 7.4375 41.25 6.75C41.25 6.0625 41.8125 5.5 42.5 5.5ZM41.25 11.75C41.25 11.0625 41.8125 10.5 42.5 10.5H45C45.6875 10.5 46.25 11.0625 46.25 11.75C46.25 12.4375 45.6875 13 45 13H42.5C41.8125 13 41.25 12.4375 41.25 11.75ZM43.75 24.25C44.413 24.25 45.0489 24.5134 45.5178 24.9822C45.9866 25.4511 46.25 26.087 46.25 26.75C46.25 27.413 45.9866 28.0489 45.5178 28.5178C45.0489 28.9866 44.413 29.25 43.75 29.25C43.087 29.25 42.4511 28.9866 41.9822 28.5178C41.5134 28.0489 41.25 27.413 41.25 26.75C41.25 26.087 41.5134 25.4511 41.9822 24.9822C42.4511 24.5134 43.087 24.25 43.75 24.25Z" fill="#EC635D"/>
</svg>
