<svg width="45" height="40" viewBox="0 0 45 40" fill="none" xmlns="http://www.w3.org/2000/svg">
<g clip-path="url(#clip0_218_72)">
<path d="M22.7187 3.79688L28.8437 6.11719L22.5 8.55469L16.1562 6.11719L22.2812 3.79688C22.4219 3.74219 22.5781 3.74219 22.7266 3.79688H22.7187ZM10.625 7.22656V15.9922C10.5234 16.0234 10.4219 16.0547 10.3203 16.0938L2.82031 18.9375C1.125 19.5781 0 21.2109 0 23.0234V32.3359C0 34.0703 1.02344 35.6406 2.61719 36.3438L10.1172 39.6406C11.2422 40.1328 12.5156 40.1328 13.6406 39.6406L22.5 35.7422L31.3672 39.6406C32.4922 40.1328 33.7656 40.1328 34.8906 39.6406L42.3906 36.3438C43.9766 35.6484 45.0078 34.0703 45.0078 32.3359V23.0234C45.0078 21.2031 43.8828 19.5781 42.1875 18.9297L34.6875 16.0859C34.5859 16.0469 34.4844 16.0156 34.3828 15.9844V7.22656C34.3828 5.40625 33.2578 3.78125 31.5625 3.13281L24.0625 0.289063C23.0625 -0.0859375 21.9609 -0.0859375 20.9609 0.289063L13.4609 3.13281C11.75 3.78125 10.625 5.41406 10.625 7.22656ZM30.625 16.4531L24.1875 18.8906V11.9219L30.625 9.45313V16.4531ZM12.0937 19.6016L18.2187 21.9219L11.875 24.3516L5.53125 21.9219L11.6562 19.6016C11.7969 19.5469 11.9531 19.5469 12.1016 19.6016H12.0937ZM13.5625 35.5703V27.7188L20 25.25V32.7422L13.5625 35.5703ZM32.9062 19.6016C33.0469 19.5469 33.2031 19.5469 33.3516 19.6016L39.4766 21.9219L33.125 24.3516L26.7812 21.9219L32.9062 19.6016ZM40.875 32.9063L34.8125 35.5703V27.7188L41.25 25.25V32.3359C41.25 32.5859 41.1016 32.8047 40.875 32.9063Z" fill="#EC635D"/>
</g>
<defs>
<clipPath id="clip0_218_72">
<rect width="45" height="40" fill="white"/>
</clipPath>
</defs>
</svg>
