<svg width="28" height="40" viewBox="0 0 28 40" fill="none" xmlns="http://www.w3.org/2000/svg">
<path d="M23.6245 23.0608C22.1874 25.0374 20.6897 27.0974 19.8869 29.4922H8.11641C7.3106 27.0697 5.78304 24.979 4.31995 22.9765L4.30997 22.9628L4.30963 22.9624C3.90275 22.4068 3.50025 21.8572 3.11381 21.3007L3.11328 21.3C1.62322 19.1627 0.75 16.5589 0.75 13.75C0.75 6.43239 6.68239 0.5 14 0.5C21.3174 0.5 27.25 6.43221 27.25 13.7578C27.25 16.5663 26.377 19.1627 24.8862 21.3085L24.8862 21.3086C24.4998 21.865 24.0972 22.4146 23.6904 22.9702L23.6893 22.9716L23.6245 23.0608ZM19.75 33.75C19.75 36.927 17.177 39.5 14 39.5C10.823 39.5 8.25 36.927 8.25 33.75V33H19.75V33.75ZM6.5 15.5C7.46364 15.5 8.25 14.7136 8.25 13.75C8.25 10.573 10.823 8 14 8C14.9636 8 15.75 7.21364 15.75 6.25C15.75 5.28636 14.9636 4.5 14 4.5C8.88792 4.5 4.75 8.63792 4.75 13.75C4.75 14.7136 5.53636 15.5 6.5 15.5Z" fill="#FF5757" stroke="#FF5757"/>
</svg>
