<svg width="40" height="40" viewBox="0 0 40 40" fill="none" xmlns="http://www.w3.org/2000/svg">
<path d="M10.3672 0.367187L5.36719 5.36719C5.00781 5.72656 4.90625 6.26562 5.09375 6.72656C5.28125 7.1875 5.74219 7.5 6.25 7.5H16.25C16.7578 7.5 17.2109 7.19531 17.4063 6.72656C17.6016 6.25781 17.4922 5.71875 17.1328 5.36719L12.1328 0.367187C11.6484 -0.117188 10.8516 -0.117188 10.3672 0.367187ZM5 10C2.24219 10 0 12.2422 0 15V35C0 37.7578 2.24219 40 5 40H35C37.7578 40 40 37.7578 40 35V15C40 12.2422 37.7578 10 35 10H5ZM12.5 17.5C13.4946 17.5 14.4484 17.8951 15.1517 18.5983C15.8549 19.3016 16.25 20.2554 16.25 21.25C16.25 22.2446 15.8549 23.1984 15.1517 23.9017C14.4484 24.6049 13.4946 25 12.5 25C11.5054 25 10.5516 24.6049 9.84835 23.9017C9.14509 23.1984 8.75 22.2446 8.75 21.25C8.75 20.2554 9.14509 19.3016 9.84835 18.5983C10.5516 17.8951 11.5054 17.5 12.5 17.5ZM6.25 31.25C6.25 29.1797 7.92969 27.5 10 27.5H15C17.0703 27.5 18.75 29.1797 18.75 31.25V32.5C18.75 33.8828 17.6328 35 16.25 35H8.75C7.36719 35 6.25 33.8828 6.25 32.5V31.25ZM21.25 31.25C21.25 29.1797 22.9297 27.5 25 27.5H30C32.0703 27.5 33.75 29.1797 33.75 31.25V32.5C33.75 33.8828 32.6328 35 31.25 35H23.75C22.3672 35 21.25 33.8828 21.25 32.5V31.25ZM23.75 21.25C23.75 20.7575 23.847 20.2699 24.0355 19.8149C24.2239 19.36 24.5001 18.9466 24.8483 18.5983C25.1966 18.2501 25.61 17.9739 26.0649 17.7855C26.5199 17.597 27.0075 17.5 27.5 17.5C27.9925 17.5 28.4801 17.597 28.9351 17.7855C29.39 17.9739 29.8034 18.2501 30.1517 18.5983C30.4999 18.9466 30.7761 19.36 30.9645 19.8149C31.153 20.2699 31.25 20.7575 31.25 21.25C31.25 21.7425 31.153 22.2301 30.9645 22.6851C30.7761 23.14 30.4999 23.5534 30.1517 23.9017C29.8034 24.2499 29.39 24.5261 28.9351 24.7145C28.4801 24.903 27.9925 25 27.5 25C27.0075 25 26.5199 24.903 26.0649 24.7145C25.61 24.5261 25.1966 24.2499 24.8483 23.9017C24.5001 23.5534 24.2239 23.14 24.0355 22.6851C23.847 22.2301 23.75 21.7425 23.75 21.25ZM27.8672 7.13281C28.3516 7.61719 29.1484 7.61719 29.6328 7.13281L34.6328 2.13281C34.9922 1.77344 35.0937 1.23437 34.9062 0.773437C34.7187 0.3125 34.2578 0 33.75 0H23.75C23.2422 0 22.7891 0.304687 22.5938 0.773437C22.3984 1.24219 22.5078 1.78125 22.8672 2.13281L27.8672 7.13281Z" fill="#EC635D"/>
</svg>
